<svg width="275" height="200" viewBox="0 0 275 200" fill="none" xmlns="http://www.w3.org/2000/svg">
<path d="M0 4C0 1.79086 1.79086 0 4 0H49.1849C50.3384 0 51.4357 0.497922 52.1952 1.36598L65 16H267C271.418 16 275 19.5817 275 24V192C275 196.418 271.418 200 267 200H7.99999C3.58171 200 0 196.418 0 192V4Z" fill="#5E96C7"/>
<path d="M10 35C10 30.5817 13.5817 27 18 27H257C261.418 27 265 30.5817 265 35V135C265 139.418 261.418 143 257 143H18C13.5817 143 10 139.418 10 135V35Z" fill="white"/>
<path d="M0 48C0 43.5817 3.58172 40 8 40H267C271.418 40 275 43.5817 275 48V192C275 196.418 271.418 200 267 200H7.99999C3.58171 200 0 196.418 0 192V48Z" fill="#6CA2D1"/>
</svg>
